<?xml version="1.0" standalone="no"?><!DOCTYPE svg PUBLIC "-//W3C//DTD SVG 1.1//EN" "http://www.w3.org/Graphics/SVG/1.1/DTD/svg11.dtd"><svg t="1724943312351" class="icon" viewBox="0 0 1024 1024" version="1.1" xmlns="http://www.w3.org/2000/svg" p-id="2782" xmlns:xlink="http://www.w3.org/1999/xlink" width="128" height="128"><path d="M962.816366 269.238857a512.365714 512.365714 0 0 0-50.541715-75.958857C818.505509 75.629714 674.231223 0 512.000366 0 349.80608 0 205.531794 75.629714 111.72608 193.28c-18.944 23.734857-35.986286 49.005714-50.505143 75.885714A509.549714 509.549714 0 0 0 0.000366 512c0 87.844571 22.198857 170.569143 61.220571 242.870857 14.518857 26.88 31.597714 52.150857 50.505143 75.885714C205.531794 948.443429 349.842651 1024 512.000366 1024c162.230857 0 306.468571-75.556571 400.274285-193.243429 18.944-23.734857 35.986286-49.042286 50.541715-75.958857A509.074286 509.074286 0 0 0 1024.000366 512c0-87.844571-22.125714-170.532571-61.184-242.761143z m-186.112 144.713143a35.84 35.84 0 1 1-71.606857 0v-47.286857l-111.506286 111.36c21.284571 31.268571 32.841143 68.132571 32.841143 106.678857a189.366857 189.366857 0 0 1-55.698286 134.692571 189.330286 189.330286 0 0 1-134.619429 55.661715 189.403429 189.403429 0 0 1-134.619428-55.661715 190.610286 190.610286 0 0 1 0-269.202285 188.964571 188.964571 0 0 1 134.619428-55.771429c38.692571 0 75.483429 11.556571 106.715429 32.841143l106.020571-106.093714-36.571428-0.036572h-0.146286a35.181714 35.181714 0 0 1-12.397714-2.486857c-0.475429-0.109714-0.987429-0.109714-1.462857-0.292571-0.768-0.329143-1.389714-1.024-2.157715-1.426286a36.498286 36.498286 0 0 1-7.131428-4.827429c-0.658286-0.512-1.499429-0.804571-2.084572-1.426285-0.365714-0.329143-0.512-0.841143-0.804571-1.243429a35.364571 35.364571 0 0 1-6.656-9.837714l-0.182857-0.256-0.036572-0.036572v-0.036571a35.328 35.328 0 0 1-2.816-13.897143c0-2.852571 0.877714-5.412571 1.609143-8.045714-0.694857 2.633143-1.609143 5.156571-1.609143 8.009143 0-4.169143 1.060571-8.045714 2.340572-11.776l0.146286-0.694857a6.838857 6.838857 0 0 1 0.329142-1.499429c0.292571-0.731429 0.804571-1.353143 1.316572-1.974857a5.888 5.888 0 0 0 0.877714-1.316572c2.816-5.046857 6.875429-9.252571 11.556572-12.470857l2.304-1.462857c0.804571-0.475429 1.536-1.097143 2.377142-1.499428 0.219429-0.073143 0.365714-0.256 0.548572-0.365715 0.658286-0.256 1.462857-0.256 2.157714-0.438857a32.914286 32.914286 0 0 1 11.739429-2.340571h0.109714l123.355429-0.036572a35.364571 35.364571 0 0 1 0 0.036572h-0.073143a35.730286 35.730286 0 0 1 15.835428 4.096 34.377143 34.377143 0 0 1 7.753143 5.229714c0.877714 0.768 1.792 1.426286 2.523429 2.304 0.804571 0.877714 1.609143 1.718857 2.304 2.706286 7.643429 6.582857 12.726857 15.981714 12.726857 26.843428v123.282286z" fill="#76c1f9" p-id="2783"></path><path d="M436.151223 466.176c-31.670857 0-61.476571 12.397714-83.858286 34.742857a118.747429 118.747429 0 0 0 0 167.753143 118.125714 118.125714 0 0 0 83.858286 34.669714 118.125714 118.125714 0 0 0 83.858286-34.669714 118.125714 118.125714 0 0 0 34.742857-83.968c0-31.597714-12.361143-61.44-34.742857-83.821714a117.906286 117.906286 0 0 0-83.858286-34.706286z" fill="#76c1f9" p-id="2784"></path><path d="M612.279223 249.453714h-0.109714a33.572571 33.572571 0 0 0-11.739429 2.340572 57.417143 57.417143 0 0 1 7.058286-1.426286c1.645714-0.182857 3.072-0.914286 4.790857-0.914286zM578.779794 273.517714a36.096 36.096 0 0 0-2.340571 11.776c0-2.852571 0.914286-5.376 1.609143-8.009143 0.402286-1.462857 0.365714-3.072 0.877714-4.498285a4.315429 4.315429 0 0 1-0.146286 0.731428zM598.272366 252.233143c-0.182857 0.073143-0.329143 0.292571-0.548572 0.365714-0.841143 0.402286-1.572571 1.024-2.377143 1.499429 1.609143-0.914286 3.328-1.609143 5.083429-2.304-0.694857 0.219429-1.499429 0.182857-2.157714 0.438857zM581.449509 268.032a10.313143 10.313143 0 0 1-0.877715 1.316571 35.401143 35.401143 0 0 1 12.470857-13.787428 37.485714 37.485714 0 0 0-11.593142 12.470857zM579.255223 271.323429a6.034286 6.034286 0 0 0-0.329143 1.499428c0.475429-1.206857 1.060571-2.304 1.645714-3.474286-0.512 0.621714-1.024 1.243429-1.316571 1.974858zM735.634651 249.453714h-123.355428H735.634651z" fill="#76c1f9" p-id="2785"></path><path d="M579.255223 299.300571l0.036571 0.036572 0.182857 0.256-0.219428-0.329143zM586.935223 310.674286c0.585143 0.621714 1.426286 0.914286 2.084571 1.426285-0.987429-0.841143-2.011429-1.682286-2.889143-2.633142 0.292571 0.329143 0.438857 0.841143 0.804572 1.206857zM598.272366 318.317714c0.475429 0.182857 0.987429 0.146286 1.462857 0.292572-1.243429-0.475429-2.377143-1.097143-3.620572-1.718857 0.768 0.402286 1.389714 1.097143 2.157715 1.426285z" fill="#76c1f9" p-id="2786"></path><path d="M588.983223 312.064a37.632 37.632 0 0 0 0.219428 0.146286l-0.219428-0.146286zM599.735223 318.610286a34.230857 34.230857 0 0 0 12.397714 2.486857h0.146286c-2.157714 0-4.022857-0.841143-6.070857-1.206857-2.157714-0.365714-4.388571-0.658286-6.473143-1.28zM648.960366 321.133714h-36.681143l36.571428 0.036572h0.073143z" fill="#76c1f9" p-id="2787"></path></svg>