<?xml version="1.0" standalone="no"?><!DOCTYPE svg PUBLIC "-//W3C//DTD SVG 1.1//EN" "http://www.w3.org/Graphics/SVG/1.1/DTD/svg11.dtd"><svg t="1724943849121" class="icon" viewBox="0 0 1024 1024" version="1.1" xmlns="http://www.w3.org/2000/svg" p-id="5682" xmlns:xlink="http://www.w3.org/1999/xlink" width="128" height="128"><path d="M115.712 512c0 250.88 203.776 454.656 454.656 454.656S1024 762.88 1024 512 820.224 57.344 569.344 57.344 115.712 261.12 115.712 512z" fill="#F4C9A8" p-id="5683"></path><path d="M0 512c0 250.88 203.776 454.656 454.656 454.656S908.288 762.88 908.288 512 704.512 57.344 453.632 57.344C203.776 57.344 0 261.12 0 512z" fill="#FE765F" p-id="5684"></path><path d="M437.248 701.44L265.216 529.408c-9.216-9.216-9.216-24.576 0-33.792l173.056-173.056c9.216-9.216 24.576-9.216 33.792 0L645.12 495.616c9.216 9.216 9.216 24.576 0 33.792L471.04 701.44c-9.216 9.216-24.576 9.216-33.792 0z" fill="#FFFFFF" p-id="5685"></path></svg>