<?xml version="1.0" standalone="no"?><!DOCTYPE svg PUBLIC "-//W3C//DTD SVG 1.1//EN" "http://www.w3.org/Graphics/SVG/1.1/DTD/svg11.dtd"><svg t="1724943335474" class="icon" viewBox="0 0 1024 1024" version="1.1" xmlns="http://www.w3.org/2000/svg" p-id="2944" xmlns:xlink="http://www.w3.org/1999/xlink" width="128" height="128"><path d="M985.573936 318.036267A511.860944 511.860944 0 1 0 1023.792886 511.860944a503.671169 503.671169 0 0 0-38.21895-193.824677z" fill="#F2486C" p-id="2945"></path><path d="M485.315173 599.559786v61.423314h-119.09298a29.687935 29.687935 0 0 0 0 59.375869h119.09298v89.063804a29.687935 29.687935 0 0 0 59.375869 0v-89.063804h119.09298a29.687935 29.687935 0 0 0 0-59.375869H546.056005v-61.423314a207.815543 207.815543 0 1 0-59.37587 0z" fill="#FFFFFF" p-id="2946"></path><path d="M515.003107 395.49789m-144.686027 0a144.686027 144.686027 0 1 0 289.372054 0 144.686027 144.686027 0 1 0-289.372054 0Z" fill="#F2486C" p-id="2947"></path></svg>